<svg xmlns="http://www.w3.org/2000/svg" version="1.1" xmlns:xlink="http://www.w3.org/1999/xlink" xmlns:svgjs="http://svgjs.dev/svgjs" width="32" height="32"><svg xmlns="http://www.w3.org/2000/svg" viewBox="0 0 32 32">
  <!-- Background circle -->
  <circle cx="16" cy="16" r="16" fill="#2563EB"></circle>
  
  <!-- Stylized Q -->
  <path d="M16 6c-4.4 0-8 3.6-8 8s3.6 8 8 8c1.1 0 2.2-0.2 3.2-0.6l2.8 2.8 2-2-2.8-2.8c0.4-1 0.6-2.1 0.6-3.2 0-4.4-3.6-8-8-8zm0 13c-2.8 0-5-2.2-5-5s2.2-5 5-5 5 2.2 5 5-2.2 5-5 5z" fill="white"></path>
  
  <!-- Checkmark -->
  <path d="M15 15l2 2 3-3" stroke="#77dd77" stroke-width="2.5" fill="none" stroke-linecap="round" stroke-linejoin="round"></path>
</svg><style>@media (prefers-color-scheme: light) { :root { filter: none; } }
@media (prefers-color-scheme: dark) { :root { filter: none; } }
</style></svg>